<svg aria-hidden="true" style="position:absolute;width:0;height:0;overflow:hidden" xmlns="http://www.w3.org/2000/svg">
  <defs>
    <symbol id="logo" viewBox="0 0 32 32">
      <path fill="#fff" style="fill:var(--color1, #fff)" d="M20.313 32.031H.032v-32h31.969v32H20.313zm5.567-10.912s.004-.002-.01-.017a4.314 4.314 0 0 1-.203-.008c-.014.001-.029.003-.064 0l-.217.04c-.321.197-.417.633-.203.918.223.298.665.326.973.054l-.116-.162a.469.469 0 0 1-.536.084.292.292 0 0 1-.183-.277c.077-.008.143-.014.236-.012.065-.003.13-.005.207-.001 0 0 .012-.006.04.002.125-.005.249-.01.38-.009l.01-.006s-.007-.005.014-.024a7.098 7.098 0 0 0-.108-.403s.008.001 0-.017c-.038-.036-.076-.072-.117-.108 0 0-.001-.003-.014-.018-.03-.013-.06-.027-.09-.036zm-11.832.164c.025-.003.051-.007.101-.009l.295.115.107-.122a.542.542 0 0 0-.761-.074c-.109.132-.125.27-.023.417l.009.022c.133.061.269.117.399.185.059.03.14.075.15.125.009.045-.066.107-.13.159-.045 0-.089 0-.151-.009a.533.533 0 0 1-.122-.051c-.111-.133-.168-.016-.242.043a.566.566 0 0 0 .689.16c.251-.133.26-.429.005-.597-.103-.035-.207-.066-.308-.106-.159-.063-.17-.137-.018-.257zm12.968-3.767s.001-.003.025.007c.029-.005.07 0 .085-.018.092-.106.193-.209.262-.329.065-.112.095-.245.143-.364 0 0-.004-.003.018-.003.043-.035.105-.061.126-.106.084-.183.162-.37.228-.561.042-.122.06-.253.088-.403.159-.514.247-1.04.27-1.578.046-1.061-.105-2.083-.587-3.043a4.683 4.683 0 0 0-1.74-1.893c-.033-.011-.066-.023-.112-.035 0 0-.009-.009-.009-.033-.018-.029-.029-.074-.054-.084a13.14 13.14 0 0 0-.555-.206c-.032-.011-.073.004-.131.007-.013-.005-.026-.01-.046-.035-.163-.066-.298-.195-.494-.188-.151.006-.303-.02-.455-.029-.162-.011-.324-.026-.487-.028-.908-.009-1.817-.015-2.725-.017-.049 0-.097.05-.146.078h-.026l-.095.046a.578.578 0 0 1 .119.103c-.002.033-.004.066-.028.1-.027.041-.073.08-.077.124-.009.081.012.164.012.247l.001 9.112c0 .042-.011.088.004.123.014.033.055.055.09.107-.002.043-.004.086-.029.13l-.146.074.175.144.005.025c.047.013.094.036.14.036.935.002 1.87.003 2.806-.001.068 0 .136-.034.227-.058.024-.001.048-.002.088.015.078-.015.156-.029.254-.052.014 0 .028.001.057.019.089-.024.178-.048.287-.08.014 0 .028 0 .057.017.099-.002.2.009.296-.01.105-.02.21-.056.305-.104.102-.052.192-.127.296-.206.016-.004.033-.009.076-.009.047-.002.103.012.138-.009.222-.129.44-.264.655-.403.033-.021.041-.079.062-.118h.023c.106-.04.233-.06.233-.232a.123.123 0 0 1 .064-.022c.154-.034.235-.128.227-.262zm-15.729 3.761a.495.495 0 0 0-.408-.21 3.059 3.059 0 0 1-.149.01 7.028 7.028 0 0 1-.211.087.632.632 0 0 0-.239.689c.054.229.21.372.432.421a.65.65 0 0 0 .632-.169l-.114-.15c-.353.219-.647.132-.7-.211h.863c.017-.171.004-.315-.096-.445l-.01-.022zm15.319-.152a.71.71 0 0 1-.091-.001.417.417 0 0 0-.057.093c.002.271.004.542-.001.836v.216h.237c0-.179.006-.35-.001-.521-.016-.362.154-.441.427-.419l.061-.233c-.201-.07-.334.022-.455.13-.035-.029-.068-.056-.119-.101zm-3.322.403c.002.167.004.335-.001.529v.208c.215.023.215.023.237-.099-.002-.013-.004-.026.003-.068-.005-.234.004-.469-.019-.702-.023-.224-.184-.354-.398-.325-.122.017-.238.082-.346.121-.02-.024-.047-.058-.089-.095 0 0-.015.003-.036-.003l-.141.008c0 .37.001.728-.001 1.086 0 .078.026.106.124.087a.535.535 0 0 1 .091 0c.007-.04.014-.08.028-.145-.002-.043-.004-.085.003-.156.001-.13-.001-.259.002-.389.004-.171.093-.273.256-.297.152-.022.228.034.287.24zm-11.548.58.01.022c.269.248.645.221.878-.071l-.121-.149c-.142.131-.279.223-.461.148a.381.381 0 0 1-.241-.319c-.031-.217.075-.368.345-.459.015-.001.029-.003.064.005l.311.16.109-.136c-.233-.277-.61-.312-.855-.103-.243.208-.286.681-.038.903zm-2.832.13a.22.22 0 0 0 .054.036.225.225 0 0 1 .066 0c.037-.027.104-.053.105-.08.007-.362.005-.723.005-1.105-.082.048-.213-.09-.231.126.002.335.004.67.001 1.022zm9.158-1.299h.703v-.227c-.306 0-.616-.001-.926.002-.018 0-.035.025-.057.067v1.487h.989v-.232h-.732v-.453h.604v-.238h-.609c0-.146 0-.275.029-.405zM5.191 18.422v-4.653c.05.035.068.072.08.11.5 1.653 1.001 3.306 1.497 4.96.031.102.08.128.176.126.245-.005.489-.002.734-.002.296 0 .297 0 .391-.279l1.893-5.636c.042-.125.086-.248.129-.373l.039.008v6.27h1.419V8.658c-.24 0-.469.006-.697-.002-.108-.004-.153.032-.185.136-.224.72-.455 1.438-.684 2.157l-2.147 6.736-.214.658c-.036-.111-.06-.177-.08-.244-.344-1.173-.687-2.347-1.032-3.519-.552-1.877-1.107-3.753-1.659-5.629-.085-.289-.082-.29-.389-.292h-.693v10.306h1.215c.205 0 .205-.001.206-.214v-.328zm7.191-9.765c-.005.072-.014.144-.014.216v10.116h.158c.807 0 1.614.008 2.421-.005a7.388 7.388 0 0 0 1.103-.085c1.396-.234 2.491-.938 3.165-2.196.862-1.608.941-3.308.344-5.006-.657-1.87-2.042-2.892-4.014-3.033-1.041-.074-2.092-.02-3.162-.008zm8.591 13.638.35-.128c.002.131.002.264-.126.346-.206.132-.408.054-.613-.039l-.084.188c.1.04.183.088.271.105.481.09.817-.135.792-.622-.006-.125-.001-.25-.001-.375v-.67c-.119-.001-.238-.057-.258.113-.385-.296-.824-.09-.921.274-.132.495.216.833.589.808zm-5.022-1.332c.183-.119.274-.096.444.12l.159-.105c-.127-.268-.378-.363-.645-.257-.228.09-.291.283-.194.583-.306.209-.414.466-.26.701.072.11.195.209.317.257.236.092.466.023.676-.13.094.184.243.148.418.135a45.824 45.824 0 0 1-.263-.298l.141-.434h-.21l-.089.264a59.564 59.564 0 0 1-.346-.39.948.948 0 0 1-.095-.124c-.056-.092-.127-.183-.051-.322zm-11.647.918c.104 0 .21.014.311-.003.195-.032.289.047.342.232.057.195.087.199.309.138-.182-.475-.366-.948-.543-1.423-.035-.095-.085-.117-.182-.117-.095 0-.135.031-.168.117-.152.403-.31.803-.465 1.205-.029.076-.055.153-.083.23.18.059.272 0 .316-.171.019-.075.087-.137.162-.206zm4.016.28c.001.211.147.078.236.114 0-.288.013-.558-.004-.826-.017-.271-.208-.423-.45-.372-.111.024-.214.085-.334.136v-.588h-.227v1.641h.233c0-.242-.004-.475.001-.707.004-.166.138-.278.313-.275.152.003.226.086.23.271.004.192.001.385.001.606zm16.348-.42h.211c.055-.308-.083-.559-.344-.647a.584.584 0 0 0-.709.301.626.626 0 0 0 .187.794c.242.169.631.128.829-.091l-.108-.14c-.367.21-.696.111-.718-.218l.653.001zm-5.258-.557-.065.028c-.011-.189-.145-.098-.242-.114v1.168h.231c0-.233-.007-.456.004-.678.004-.076.034-.185.088-.215a.545.545 0 0 1 .316-.063c.121.017.136.141.136.25v.706h.236c0-.276.012-.541-.003-.804-.018-.303-.233-.451-.516-.371-.059.017-.112.052-.187.094zm8.772.764c-.003-.175-.1-.277-.258-.33-.074-.025-.158-.03-.221-.07-.061-.039-.144-.112-.142-.167.005-.11.117-.126.205-.105.097.023.188.073.287.114l.114-.127a.536.536 0 0 0-.477-.19c-.215.014-.358.14-.378.309-.021.177.078.299.304.376.069.023.147.031.206.068.053.033.086.099.127.15-.058.042-.119.121-.174.117-.117-.008-.23-.06-.377-.104l-.116.105a.578.578 0 0 0 .572.191c.175-.03.29-.133.327-.337zm-21.684-.353c.114-.355.325-.399.707-.142l.11-.141a.575.575 0 0 0-.655-.215c-.235.074-.395.308-.395.578 0 .282.155.517.394.596.226.074.549-.017.652-.217l-.112-.135c-.248.182-.348.21-.502.123-.162-.091-.225-.237-.2-.447zm3.106-.505-.206.012v.217l.233.017v.931h.239v-.935l.257-.012v-.233H9.86v-.28h-.237c0 .095 0 .178-.019.282zm-3.885.124c.007-.215-.143-.085-.233-.118v1.17h.231v-.507c0-.347.081-.429.433-.43l.052-.257c-.092.006-.163-.006-.221.017-.091.038-.173.098-.263.125zm7.204-.119h-.17v.221l.241.023v.925h.235v-.93l.258-.017v-.226h-.266v-.287h-.213c-.02.103-.037.195-.085.289zm9.179.001h-.182v1.172h.232c0-.261.002-.514-.001-.766a1.758 1.758 0 0 0-.049-.406zm-13.109-.547c-.044.037-.127.079-.123.11.008.063.06.167.1.17.062.004.165-.047.186-.1.043-.105-.023-.176-.163-.18zm13.189.175c-.005-.035.001-.095-.016-.102-.069-.029-.15-.067-.216-.052-.035.008-.084.137-.063.173.03.05.119.076.186.088.027.005.066-.054.108-.108z"/>
      <path fill="#fb1d31" style="fill:var(--color2, #fb1d31)" d="M5.191 18.437v.312c0 .213 0 .214-.206.214H3.77V8.657h.693c.307.001.304.003.389.292.552 1.877 1.106 3.753 1.659 5.629l1.032 3.519c.02.067.043.133.08.244.081-.247.149-.452.214-.658l2.147-6.736c.229-.719.46-1.437.684-2.157.032-.104.078-.14.185-.136.228.008.456.002.697.002v10.295h-1.419v-6.27l-.039-.008c-.043.124-.088.248-.129.373L8.07 18.682c-.094.279-.094.279-.391.279-.245 0-.49-.003-.734.002-.096.002-.145-.024-.176-.126-.496-1.654-.997-3.307-1.497-4.96a.19.19 0 0 0-.08-.11v4.668z"/>
      <path fill="#fb1e31" style="fill:var(--color3, #fb1e31)" d="m23.969 18.968-.097.003-3.028.011c-.041 0-.082-.009-.123-.014l.001-.014c-.001-.078-.005-.141-.008-.205l.007-.157.001-9.594c0-.031-.005-.062-.008-.093l.006-.124-.001-.124.016-.004c.675-.006 1.335-.004 1.995-.013.776-.01 1.55-.004 2.303.219l.058.024.723.298.02.019c.042.022.073.036.104.049a4.501 4.501 0 0 1 1.737 1.87c.482.959.633 1.981.587 3.043a6.178 6.178 0 0 1-.278 1.598l-.457 1.049s.004.003-.007.006c-.175.234-.339.466-.504.697 0 0-.001.003-.011.009-.087.088-.164.17-.241.253-.013.009-.026.017-.052.037l-.244.22s.001.001-.01.002c-.298.176-.585.351-.872.526a91.148 91.148 0 0 1-.962.315l-.064.002c-.108.021-.194.04-.28.06h-.065l-.247.032zm-2.694-7.515v5.987c.285 0 .545.003.805-.001.619-.01 1.244.027 1.856-.045 1.098-.129 1.913-.705 2.354-1.739.428-1.004.462-2.052.2-3.094-.384-1.529-1.506-2.372-3.083-2.377-.661-.002-1.323-.001-1.984 0-.045 0-.09.006-.147.01v1.26z"/>
      <path fill="#fb1c30" style="fill:var(--color4, #fb1c30)" d="M12.394 8.649c1.058-.004 2.109-.058 3.15.016 1.972.141 3.357 1.163 4.014 3.033.597 1.698.518 3.398-.344 5.006-.674 1.258-1.769 1.962-3.165 2.196a7.388 7.388 0 0 1-1.103.085c-.807.012-1.614.004-2.421.005h-.158V8.874c0-.072.009-.144.026-.224zm4.913 2.368a.233.233 0 0 1-.026-.017s-.001.001-.001-.021c-.084-.065-.169-.13-.25-.197 0 0-.002.003-.002-.02-.132-.131-.27-.251-.467-.263 0 0-.002.003-.004-.02-.122-.064-.238-.164-.367-.186-.417-.072-.837-.145-1.258-.162-.669-.026-1.34-.007-2.035-.007-.007.054-.023.123-.023.193l-.001 6.623c0 .13-.003.26.001.39.004.112.044.172.181.17.62-.008 1.239-.003 1.859-.004.591-.001 1.164-.098 1.703-.349.092-.043.165-.127.25-.186 0 0-.005-.005.018.001.14-.056.272-.122.334-.283l.031-.002c.017-.022.034-.044.052-.06 0 0-.004-.005.018 0 .163-.196.35-.378.483-.592.221-.357.35-.757.433-1.169.063-.315.112-.63.045-.972.002-.013.004-.027.027-.047.009-.012.027-.025.026-.036-.027-.286-.063-.572-.084-.859-.03-.408-.177-.781-.334-1.15-.045-.105-.142-.188-.203-.294-.004.004-.009.008-.005-.011-.046-.092-.06-.211-.183-.227 0 0-.011-.001-.003-.023-.071-.069-.143-.138-.213-.209 0 0-.001.001-.005-.014z"/>
      <path fill="#111087" style="fill:var(--color5, #111087)" d="M20.961 22.297c-.361.023-.708-.314-.577-.809.097-.364.536-.57.921-.274.02-.17.139-.114.258-.113v.67c0 .125-.006.25.001.375.025.487-.311.712-.792.622-.089-.017-.171-.065-.271-.105l.084-.188c.205.093.407.17.613.039.128-.081.128-.215.126-.346-.12.044-.235.086-.363.129zm.074-.227c.19-.05.282-.155.301-.343a.396.396 0 0 0-.206-.402.353.353 0 0 0-.416.062.435.435 0 0 0-.093.447c.069.176.199.257.414.237zM15.944 20.973c-.069.129.002.22.058.312.027.044.06.085.095.124.109.125.22.248.346.39l.089-.264h.21l-.141.434.263.298c-.174.013-.323.049-.418-.135-.21.152-.44.222-.676.13a.712.712 0 0 1-.317-.257c-.153-.235-.046-.491.26-.701-.098-.3-.034-.492.194-.583.267-.106.519-.011.645.257l-.159.105c-.17-.216-.261-.239-.451-.11zm-.198.567c-.142.162-.145.324-.007.449.142.13.405.118.541-.028-.123-.138-.243-.28-.373-.412-.027-.028-.094-.016-.161-.01z"/>
      <path fill="#0e0d89" style="fill:var(--color6, #0e0d89)" d="M4.289 21.881c-.06.069-.128.131-.147.206-.044.171-.136.23-.316.171.028-.077.054-.154.083-.23.155-.402.314-.802.465-1.205.032-.086.072-.117.168-.117.097 0 .146.023.182.117.177.476.361.949.543 1.423-.222.061-.252.058-.309-.138-.054-.185-.147-.264-.342-.232-.101.017-.207.003-.326.003zm.089-.23h.395l-.231-.653-.223.613c-.003.008.02.025.058.04z"/>
      <path fill="#feece9" style="fill:var(--color7, #feece9)" d="M20.702 8.906a.22.22 0 0 1 .019.092c0 3.189 0 6.378-.004 9.582-.033-.012-.074-.034-.088-.067-.015-.036-.004-.082-.004-.123l-.001-9.112c0-.082-.02-.166-.012-.247.005-.044.05-.083.089-.124z"/>
      <path fill="#15148a" style="fill:var(--color8, #15148a)" d="M8.32 22.147c0-.207.003-.399-.001-.591-.004-.185-.078-.268-.23-.271-.175-.003-.309.108-.313.275-.006.233-.001.465-.001.707h-.233v-1.641h.227v.588c.12-.05.223-.112.334-.136.242-.051.432.101.45.372.017.268.004.538.004.826-.089-.036-.235.097-.235-.129z"/>
      <path fill="#111087" style="fill:var(--color5, #111087)" d="m24.653 21.74-.638-.001c.021.329.351.427.718.218l.108.14c-.198.219-.587.26-.829.091-.247-.172-.325-.505-.187-.794a.585.585 0 0 1 .709-.301c.261.088.399.34.344.647l-.226-.001zm-.547-.373-.117.179h.658c-.045-.261-.261-.338-.541-.179z"/>
      <path fill="#12118f" style="fill:var(--color9, #12118f)" d="M18.033 20.94v.404h.609v.238h-.604v.453h.732v.232h-.989c0-.496 0-.992.017-1.502.288-.013.56-.014.832-.007.031.001.061.048.092.073l-.02.043c-.179 0-.359-.004-.538.003-.045.002-.088.04-.132.062z"/>
      <path fill="#15148a" style="fill:var(--color8, #15148a)" d="M19.419 21.177c.065-.035.119-.07.177-.087.282-.08.498.068.516.371.015.263.003.529.003.804h-.236v-.706c0-.108-.015-.233-.136-.25a.545.545 0 0 0-.316.063c-.054.03-.085.14-.088.215-.011.222-.004.445-.004.678h-.231v-1.168c.097.017.23-.075.242.114a.79.79 0 0 0 .075-.036z"/>
      <path fill="#0e0d89" style="fill:var(--color6, #0e0d89)" d="M10.501 21.749c.082.338.375.425.729.206l.114.15a.65.65 0 0 1-.632.169.539.539 0 0 1-.432-.421c-.065-.278.011-.511.261-.692.085-.03.148-.057.211-.084a.54.54 0 0 1 .144.002c.144.08.273.148.401.216 0 0 .001.003-.002.016.01.068.016.126.036.178.056.148.028.197-.13.199-.192.003-.385-.003-.577.003-.042.001-.082.037-.123.056zm.184-.435c-.095.049-.166.114-.164.234h.625c-.033-.228-.187-.31-.461-.234z"/>
      <path fill="#111087" style="fill:var(--color5, #111087)" d="m25.532 21.729-.21.02a.29.29 0 0 0 .183.277.467.467 0 0 0 .536-.084l.116.162c-.309.272-.75.244-.973-.054-.214-.285-.118-.721.221-.913.085-.01.152-.025.22-.041.014-.001.029-.003.063.006.079.011.138.012.197.013 0 0-.004.002 0 .01.036.02.068.031.1.042 0 0 .001.003-.002.014a.904.904 0 0 0 .128.115s-.008-.001-.008.012c.09.376.09.376-.295.376-.031 0-.063-.004-.093.001-.061.011-.121.027-.182.041zm-.138-.374a.643.643 0 0 0-.019.056l-.058.132h.67c-.034-.07-.058-.119-.071-.177-.014-.007-.028-.014-.055-.024-.01-.003-.016-.009-.027-.039-.019-.006-.039-.011-.054-.018 0 0 0 .004-.01-.017-.085-.065-.164-.072-.235.018l-.021-.002c-.035.021-.069.043-.105.062 0 0 .003 0-.014.009z"/>
      <path fill="#131387" style="fill:var(--color10, #131387)" d="M28.181 21.961c-.036.192-.151.295-.326.325a.582.582 0 0 1-.572-.191l.116-.105c.147.043.26.095.377.104.055.004.116-.075.174-.117-.042-.051-.074-.116-.127-.15-.059-.038-.137-.045-.206-.068-.226-.077-.325-.2-.304-.376.02-.169.163-.295.378-.309a.534.534 0 0 1 .477.19l-.114.127c-.099-.041-.19-.091-.287-.114-.088-.021-.201-.006-.205.105-.002.055.081.129.142.167.063.04.148.046.221.07.158.053.255.156.257.343z"/>
      <path fill="#111087" style="fill:var(--color5, #111087)" d="M6.496 21.608c-.023.196.039.342.202.434.153.086.254.059.502-.123l.112.135c-.103.2-.427.292-.652.217-.239-.079-.394-.314-.394-.596 0-.27.16-.504.395-.578.249-.079.5.001.655.215l-.11.141c-.381-.257-.593-.212-.709.155z"/>
      <path fill="#15148a" style="fill:var(--color8, #15148a)" d="M9.613 21.079c.009-.093.009-.176.009-.271h.237v.28h.267v.233l-.257.012v.935H9.63v-.931a125 125 0 0 1-.233-.017v-.217c.073-.004.14-.008.216-.023zM5.721 21.226c.088-.039.17-.1.261-.137.057-.023.128-.012.221-.017l-.052.257c-.352.001-.433.083-.433.43v.507h-.231v-1.17c.089.032.239-.097.235.13z"/>
      <path fill="#0e0d89" style="fill:var(--color6, #0e0d89)" d="M14.389 21.659c.241.154.231.449-.019.583a.566.566 0 0 1-.689-.16c.074-.059.131-.176.252-.026.05.026.089.034.129.043.045 0 .089 0 .154.008.121-.001.176-.053.155-.155-.017-.083-.028-.18-.156-.173-.037.002-.077-.022-.115-.036-.111-.043-.221-.088-.332-.132 0 0-.001-.003.003-.017-.003-.063-.02-.113-.014-.16a.627.627 0 0 1 .066-.184c.035.011.06.023.084.047.016.084.011.198.052.218.134.067.285.099.43.145z"/>
      <path fill="#151274" style="fill:var(--color11, #151274)" d="M12.938 21.094a2.09 2.09 0 0 0 .07-.288h.213v.287h.266v.226l-.258.017v.93h-.235v-.925l-.241-.023v-.221l.185-.001zm.015.188c.129.032.1.142.1.226 0 .196-.016.393-.018.589 0 .029.039.058.061.087.02-.03.057-.058.059-.089.015-.212.044-.426.025-.635-.014-.151.027-.187.16-.182.021.001.043-.032.065-.05-.021-.023-.04-.066-.063-.067-.14-.01-.186-.089-.188-.218 0-.029-.043-.057-.066-.086-.018.028-.055.058-.052.083.018.152-.041.226-.195.225-.017 0-.034.03-.074.067.07.021.116.036.187.05z"/>
      <path fill="#feece9" style="fill:var(--color7, #feece9)" d="M25.029 8.85c-.75-.213-1.524-.219-2.3-.209-.66.008-1.321.006-1.995.011.034-.024.083-.074.132-.074.908.002 1.817.008 2.725.017.162.002.324.017.487.028.152.01.304.035.455.029.196-.007.331.121.497.197z"/>
      <path fill="#15148a" style="fill:var(--color8, #15148a)" d="M22.115 21.1c.021.137.033.269.035.402.003.253.001.506.001.766h-.232v-1.172c.063 0 .122 0 .196.004z"/>
      <path fill="#050392" style="fill:var(--color12, #050392)" d="M12.189 21.276c-.015.001-.029.003-.063-.005-.054-.008-.092-.015-.124-.003-.219.079-.319.304-.238.584a.39.39 0 0 0 .168.2c.159.098.329.119.491-.011.019-.015.062-.001.094 0-.002.024.004.054-.008.071-.07.1-.43.143-.539.08-.071-.041-.156-.055-.235-.081 0 0-.001-.003.002-.015a.511.511 0 0 0-.037-.128c-.172-.361-.057-.671.313-.817a.359.359 0 0 1 .387.054l-.212.071z"/>
      <path fill="#131387" style="fill:var(--color10, #131387)" d="M22.686 22.27a.18.18 0 0 1-.082-.009c-.034-.301-.051-.588-.075-.875-.01-.123.012-.224.128-.286 0 0 .015-.003.023.01.024.174.123.142.228.114.014.015.023.022.025.037-.236.106-.336.487-.201.74.002.043.004.085-.006.144a.839.839 0 0 0-.039.124z"/>
      <path fill="#0e0d89" style="fill:var(--color6, #0e0d89)" d="M9 22.268c-.014.002-.028.004-.053-.004l-.038-.044c-.002-.335-.004-.67.008-1.024.139-.073.182-.028.179.103-.006.244-.009.489.001.733.004.101-.021.175-.097.236z"/>
      <path fill="#1b1b7d" style="fill:var(--color13, #1b1b7d)" d="M11.741 22.121c.074.017.16.031.231.071.109.063.469.02.539-.08.012-.017.006-.047.008-.071-.032-.001-.075-.016-.094 0-.163.13-.332.109-.491.011a.393.393 0 0 1-.168-.2c-.081-.28.019-.505.238-.584.032-.011.07-.005.113.001-.241.103-.346.253-.315.47a.381.381 0 0 0 .241.319c.182.075.319-.017.461-.148l.121.149a.577.577 0 0 1-.882.062z"/>
      <path fill="#050392" style="fill:var(--color12, #050392)" d="M22.939 21.254a.203.203 0 0 1-.032-.03c-.004-.008-.002-.008.005-.011.015-.009.02-.017.029-.036.274-.103.425-.044.487.229.044.193.023.4.037.601.003.041.031.08.048.119.002.013.004.026-.008.05-.108.051-.167.038-.168-.083 0-.021-.032-.043-.049-.064-.002-.167-.004-.335.003-.524.006-.219-.105-.289-.353-.251zM26.53 21.129a.16.16 0 0 1 .086.015l.098.17c-.022.141-.046.254-.056.369-.009.103.004.209-.009.311-.009.065-.048.127-.073.19l-.111-.154c-.002-.271-.004-.542.007-.829l.058-.072z"/>
      <path fill="#feece9" style="fill:var(--color7, #feece9)" d="M20.722 18.981c.039-.008.08.001.121.001 1.001-.003 2.001-.007 3.016-.008-.054.021-.122.055-.19.055a437.4 437.4 0 0 1-2.806.001.326.326 0 0 1-.142-.049z"/>
      <path fill="#1b1b7d" style="fill:var(--color13, #1b1b7d)" d="M12.199 21.28c.05-.025.109-.044.202-.076a.36.36 0 0 0-.387-.054c-.369.146-.485.456-.313.817a.514.514 0 0 1 .035.128c-.249-.209-.207-.683.037-.89.246-.21.623-.174.855.103l-.109.136-.321-.164zM26.461 22.041c.041.04.078.092.115.143.025-.063.064-.125.073-.19.013-.102 0-.208.009-.311.01-.114.034-.227.056-.369a3.292 3.292 0 0 1-.089-.161.644.644 0 0 1 .1.073c.122-.108.254-.2.455-.13l-.061.233c-.273-.022-.443.056-.427.419.008.171.001.342.001.521h-.237c0-.073 0-.145.004-.228zm.558-.789.068-.048c-.017-.016-.032-.043-.051-.045-.111-.012-.21.002-.252.166.086-.028.148-.048.235-.073z"/>
      <path fill="#2a2a87" style="fill:var(--color14, #2a2a87)" d="M23.519 22.112c-.021-.026-.05-.065-.052-.105-.014-.2.006-.408-.037-.601-.062-.273-.213-.333-.493-.226-.022.018-.027.026-.03.035l-.003.001c-.101.036-.2.068-.217-.104a.616.616 0 0 1 .074.08c.107-.039.223-.104.346-.121.214-.029.375.101.398.325.023.232.014.468.015.716z"/>
      <path fill="#151274" style="fill:var(--color11, #151274)" d="M9.012 22.271a.297.297 0 0 0 .084-.239c-.01-.244-.007-.489-.001-.733.003-.131-.04-.176-.176-.118.002-.183.132-.044.214-.093 0 .382.002.744-.005 1.105-.001.027-.068.053-.117.077z"/>
      <path fill="#1b1b7d" style="fill:var(--color13, #1b1b7d)" d="M13.811 21.186c.224-.181.536-.152.74.08l-.107.122c-.108-.042-.201-.078-.307-.124-.012-.02-.011-.032.002-.044.109.022.205.045.301.068l.008-.045c-.194-.143-.407-.13-.629-.05l-.007-.008z"/>
      <path fill="#131387" style="fill:var(--color10, #131387)" d="M9.004 20.546c.129.006.195.078.152.182-.022.054-.124.105-.186.1-.04-.003-.092-.106-.1-.17-.004-.031.079-.073.134-.113z"/>
      <path fill="#2a2a87" style="fill:var(--color14, #2a2a87)" d="M22.646 21.097c-.106.066-.128.166-.117.289.024.287.041.574.064.872-.073.036-.1.007-.099-.07.002-.358.001-.716.001-1.086.052-.003.097-.006.152-.005z"/>
      <path fill="#1b1b7d" style="fill:var(--color13, #1b1b7d)" d="M22.178 20.736c-.038.042-.077.101-.104.096-.068-.012-.156-.038-.186-.088-.022-.036.027-.165.063-.173.066-.015.147.023.216.052.017.007.011.067.012.113z"/>
      <path fill="#151274" style="fill:var(--color11, #151274)" d="M18.047 20.94c.029-.021.073-.06.118-.061.179-.007.358-.003.538-.003l.02-.043c-.031-.026-.061-.072-.092-.073-.272-.007-.543-.006-.829-.008.003-.013.021-.037.038-.038.31-.002.619-.002.926-.002v.227h-.718z"/>
      <path fill="#feece9" style="fill:var(--color7, #feece9)" d="M27.538 16.809c.138-.343.288-.686.446-1.038-.02.118-.038.249-.08.371a6.46 6.46 0 0 1-.228.561c-.021.045-.083.071-.137.106zM25.599 18.56c.273-.177.56-.352.858-.528-.009.039-.018.097-.051.118-.215.14-.434.274-.655.403-.036.021-.092.007-.152.007z"/>
      <path fill="#2a2a87" style="fill:var(--color14, #2a2a87)" d="M22.932 21.262c.256-.046.367.025.362.229-.068-.168-.144-.224-.296-.203-.163.023-.253.126-.256.297-.003.13-.002.259-.006.403-.14-.239-.039-.62.197-.726zM10.515 21.746c.027-.017.067-.052.109-.054.192-.006.384-.001.577-.003.157-.002.186-.051.13-.199-.02-.052-.026-.11-.035-.177.102.116.114.261.097.431-.294 0-.578 0-.877.003z"/>
      <path fill="#feece9" style="fill:var(--color7, #feece9)" d="M24.632 18.882c.285-.104.579-.2.884-.296-.083.064-.173.139-.275.191-.095.049-.2.084-.305.104-.096.018-.197.008-.303.001zM27.028 17.517c.152-.236.317-.468.49-.704-.036.118-.066.251-.131.363-.07.12-.17.223-.262.329-.015.017-.056.012-.096.012z"/>
      <path fill="#151274" style="fill:var(--color11, #151274)" d="M25.545 21.734a.983.983 0 0 1 .169-.045c.03-.005.062-.001.093-.001.384 0 .384 0 .299-.375.037.121.07.255.091.399a.117.117 0 0 1-.017.013c-.125.005-.249.01-.39.008-.023-.009-.03-.008-.035-.003-.065.003-.13.005-.208.004z"/>
      <path fill="#feece9" style="fill:var(--color7, #feece9)" d="M25.813 9.17a12.33 12.33 0 0 1-.712-.287c.03-.011.07-.026.103-.015.186.064.372.132.555.206.025.01.037.055.054.096z"/>
      <path fill="#1b1b7d" style="fill:var(--color13, #1b1b7d)" d="M13.772 21.621c.106.035.217.079.328.122.038.015.077.039.115.036.129-.008.139.09.156.173.022.102-.034.154-.142.156.03-.061.105-.123.096-.168-.01-.05-.091-.095-.15-.125-.13-.067-.266-.124-.404-.194zM14.382 21.653c-.138-.039-.289-.071-.423-.138-.041-.02-.036-.134-.04-.219a.2.2 0 0 1 .088-.022l.016.005c-.126.124-.115.198.044.261.101.04.206.071.316.113z"/>
      <path fill="#2a2a87" style="fill:var(--color14, #2a2a87)" d="M23.286 22.043c.02.008.052.029.052.05 0 .121.059.134.165.093-.005.102-.005.102-.221.078 0-.068 0-.138.004-.221z"/>
      <path fill="#1b1b7d" style="fill:var(--color13, #1b1b7d)" d="M13.812 21.249c-.019.061-.047.122-.055.185-.007.047.011.097.012.159-.104-.132-.088-.269.031-.404.01-.003.015.002.015.013a.373.373 0 0 1-.004.047z"/>
      <path fill="#feece9" style="fill:var(--color7, #feece9)" d="M26.776 17.775c.064-.085.141-.167.227-.254.02.129-.06.222-.227.254z"/>
      <path fill="#2a2a87" style="fill:var(--color14, #2a2a87)" d="M11.291 21.286a4.677 4.677 0 0 1-.383-.205.434.434 0 0 1 .383.205z"/>
      <path fill="#feece9" style="fill:var(--color7, #feece9)" d="M20.701 18.75a.98.98 0 0 1 .02.204 1.168 1.168 0 0 1-.177-.13c.058-.029.102-.052.158-.075zM26.48 18.031c.065-.07.143-.14.23-.213.015.154-.112.173-.23.213zM24.288 18.945c.078-.028.164-.047.263-.065a1.58 1.58 0 0 1-.263.065zM23.977 18.977a1.26 1.26 0 0 1 .229-.037 1.179 1.179 0 0 1-.229.037zM20.706 8.657a.27.27 0 0 1 .01.113c-.041-.014-.079-.041-.117-.067.032-.015.063-.031.106-.046z"/>
      <path fill="#2a2a87" style="fill:var(--color14, #2a2a87)" d="M10.74 21.077a1.464 1.464 0 0 1-.189.081c.052-.027.115-.055.189-.081z"/>
      <path fill="#151274" style="fill:var(--color11, #151274)" d="M26.105 21.29a.554.554 0 0 1-.122-.106c.043.025.08.061.122.106zM25.614 21.095a1.024 1.024 0 0 1-.199.041c.058-.019.123-.031.199-.041zM25.877 21.109a.679.679 0 0 1-.179-.003.679.679 0 0 1 .179.003z"/>
      <path fill="#1b1b7d" style="fill:var(--color13, #1b1b7d)" d="M14.053 22.095a.47.47 0 0 1-.113-.029.522.522 0 0 1 .113.029z"/>
      <path fill="#2a2a87" style="fill:var(--color14, #2a2a87)" d="M22.697 22.273a.252.252 0 0 1 .024-.114.252.252 0 0 1-.024.114z"/>
      <path fill="#0e0d89" style="fill:var(--color6, #0e0d89)" d="M14.036 21.281c-.013-.002-.024-.005-.023-.015.038-.022.076-.033.114-.045l-.002.043a.224.224 0 0 1-.089.017z"/>
      <path fill="#1b1b7d" style="fill:var(--color13, #1b1b7d)" d="M26.523 21.127a.143.143 0 0 1-.048.06.135.135 0 0 1 .048-.06z"/>
      <path fill="#feece9" style="fill:var(--color7, #feece9)" d="M25.936 9.237a.22.22 0 0 1-.096-.037.22.22 0 0 1 .096.037z"/>
      <path fill="#151274" style="fill:var(--color11, #151274)" d="M25.977 21.162a.249.249 0 0 1-.093-.037.249.249 0 0 1 .093.037zM8.907 22.229c.012.002.021.013.03.032-.01-.003-.022-.013-.03-.032z"/>
      <path fill="#111087" style="fill:var(--color5, #111087)" d="M26.182 21.728c-.003-.003.001-.006.003-.007s.01.004.01.004-.01.006-.013.003zM25.76 21.734c0-.009.006-.01.016-.005.003.002-.01.008-.016.005z"/>
      <path fill="#fffefe" style="fill:var(--color15, #fffefe)" d="M21.275 11.438v-1.244c.057-.004.102-.01.147-.01.661 0 1.323-.002 1.984 0 1.577.005 2.699.849 3.083 2.377.262 1.043.228 2.09-.2 3.094-.441 1.035-1.256 1.611-2.354 1.74-.612.072-1.237.035-1.856.045-.26.004-.519.001-.805.001v-6.003z"/>
      <path fill="#fffdfd" style="fill:var(--color16, #fffdfd)" d="M18.29 13.846a.789.789 0 0 0-.007.064c-.061.444-.095.869-.186 1.282-.121.547-.415 1.012-.795 1.422 0 0 .004.005-.007.005a.342.342 0 0 0-.064.061s-.008.001-.019.008c-.123.095-.235.183-.346.271 0 0 .005.005-.008.003a3.5 3.5 0 0 1-1.798.476c-.661-.002-1.322-.003-1.982.004-.124.001-.16-.037-.16-.158.003-2.31.003-4.62.004-6.931 0-.05.006-.101.01-.167h.18c.473 0 .947.009 1.42-.002.697-.016 1.384.018 2.029.32 0 0 .002-.003.007.007.157.098.309.187.461.276 0 0 .002-.003.004.008.084.077.166.143.247.208 0 0 .001-.001.002.007.01.014.02.019.03.024 0 0 .001-.001.003.009.069.08.136.15.203.22 0 0 .011.001.008.01.058.086.117.164.177.241.004-.004.009-.008.009.005.124.306.27.588.375.885.164.465.186.955.202 1.443z"/>
      <path fill="#d73246" style="fill:var(--color17, #d73246)" d="M16.56 10.492c-.645-.29-1.332-.324-2.029-.309-.473.011-.947.002-1.42.002h-.18c-.004.067-.01.117-.01.167-.001 2.31-.001 4.62-.004 6.931 0 .121.036.159.16.158.661-.006 1.322-.006 1.982-.004a3.458 3.458 0 0 0 1.797-.479c-.071.064-.144.148-.236.191-.539.251-1.112.348-1.703.349-.62.001-1.239-.004-1.859.004-.136.002-.177-.058-.181-.17-.004-.13-.001-.26-.001-.39 0-2.208-.001-4.416.001-6.623 0-.069.016-.139.023-.193.695 0 1.365-.019 2.035.007.421.017.841.09 1.258.162.129.022.245.122.367.197zM17.313 16.617c.369-.413.663-.878.784-1.425.091-.413.125-.838.189-1.272.066.308.018.623-.046.938-.083.412-.212.812-.433 1.169-.133.215-.32.396-.494.59zM18.301 13.842c-.027-.485-.049-.976-.213-1.44-.105-.297-.251-.579-.381-.878.071.083.168.166.213.271.157.369.304.742.334 1.15.021.287.057.572.084.859.001.011-.017.024-.037.039zM17.029 10.774a6.536 6.536 0 0 1-.462-.263c.193.001.331.121.462.263zM16.877 16.961c.1-.091.211-.179.333-.27-.049.151-.181.217-.333.27zM17.28 10.991a2.415 2.415 0 0 1-.249-.196c.081.055.165.12.249.196zM17.707 11.501a2.088 2.088 0 0 1-.187-.23c.131.007.145.126.187.23zM17.521 11.251a1.952 1.952 0 0 1-.207-.209c.068.059.139.128.207.209zM17.242 16.68c.006-.02.024-.04.052-.064a.164.164 0 0 1-.052.064zM17.309 11.025c-.008.003-.017-.002-.029-.015.008-.003.017.002.029.015z"/>
      <path fill="#f4f5f9" style="fill:var(--color18, #f4f5f9)" d="M21.022 22.072c-.202.017-.332-.064-.401-.24a.435.435 0 0 1 .093-.447.355.355 0 0 1 .416-.062c.141.07.223.23.206.402-.019.189-.111.294-.314.346zM15.756 21.534c.058 0 .124-.011.152.017.13.132.25.274.373.412-.136.146-.399.158-.541.028-.137-.125-.135-.287.017-.456z"/>
      <path fill="#e6e8f9" style="fill:var(--color19, #e6e8f9)" d="M4.365 21.651c-.024-.014-.048-.031-.045-.039.07-.198.143-.396.223-.613l.231.653-.408-.001zM24.115 21.36c.271-.151.488-.075.532.186h-.658a4.56 4.56 0 0 1 .126-.186zM10.697 21.31c.262-.072.416.01.449.237h-.625c-.002-.119.069-.184.176-.237zM25.905 21.375l.082.168h-.67a2.213 2.213 0 0 1 .095-.197l.007-.002c.047-.02.083-.038.12-.056h.01l.231.002s0-.004.004.005c.022.015.04.023.058.03.003.01.009.016.029.028.018.014.027.019.036.024z"/>
      <path fill="#151274" style="fill:var(--color11, #151274)" d="M25.774 21.278c-.067.01-.14.01-.226.011.057-.093.136-.086.226-.011zM25.526 21.285a.505.505 0 0 1-.107.059.554.554 0 0 1 .107-.059zM25.91 21.37c-.014-.001-.023-.006-.034-.019.011 0 .025.007.034.019zM25.837 21.313c-.014.003-.032-.004-.056-.019.013-.002.033.004.056.019zM25.402 21.35c.004.007-.001.019-.014.035-.004-.007.001-.019.014-.035z"/>
      <path fill="#050392" style="fill:var(--color12, #050392)" d="M14.139 21.22a.719.719 0 0 0-.131.043.299.299 0 0 1-.088.019c-.036-.01-.061-.021-.096-.033-.01-.012-.008-.024-.005-.045.222-.091.435-.105.629.039l-.008.045a11.07 11.07 0 0 0-.301-.068zM12.94 21.282c-.059-.014-.105-.029-.175-.05.04-.037.057-.067.074-.067.155 0 .214-.074.195-.225-.003-.025.034-.056.052-.083.023.029.065.057.066.086.002.129.047.209.188.218.022.002.042.044.063.067-.022.017-.044.051-.065.05-.133-.005-.174.031-.16.182.02.209-.01.423-.025.635-.002.031-.038.059-.059.089-.021-.029-.061-.058-.061-.087.002-.197.019-.393.018-.589 0-.083.029-.193-.112-.226z"/>
      <path fill="#131387" style="fill:var(--color10, #131387)" d="M22.913 21.213c-.004-.007.001-.014.015-.024.005.007 0 .015-.015.024z"/>
      <path fill="#050392" style="fill:var(--color12, #050392)" d="M27.007 21.254a8.53 8.53 0 0 0-.222.07c.041-.164.14-.178.252-.166.018.002.034.03.051.045-.023.016-.045.032-.08.05z"/>
    </symbol>
  </defs>
</svg>


