<svg xmlns="http://www.w3.org/2000/svg" aria-hidden="true" style="position:absolute;width:0;height:0;overflow:hidden">
  <defs>
    <symbol id="logo" viewBox="0 0 32 32">
      <path d="m.762 13.637.019 6.456 1.656.038v-3.288c0-2.144.019-3.281.063-3.281.038 0 .063.044.063.094s.031.094.063.094c.038 0 .063.1.063.219s.031.219.063.219c.038 0 .063.081.063.188 0 .1.031.188.063.188.038 0 .063.1.063.219s.031.219.063.219c.038 0 .063.069.063.156s.025.206.056.269c.031.056.112.3.188.544.069.238.256.856.413 1.375.163.512.35 1.131.419 1.375.069.238.15.488.181.544a.708.708 0 0 1 .056.262c0 .087.031.175.063.194.037.019.063.106.063.188 0 .194.094.219.825.219.694 0 .794-.05.8-.394 0-.094.031-.169.063-.169.037 0 .063-.087.063-.188 0-.106.031-.188.063-.188.037 0 .063-.087.063-.188 0-.106.031-.188.063-.188.037 0 .063-.069.063-.15 0-.087.031-.175.063-.194s.063-.1.063-.181c0-.075.019-.156.037-.175s.2-.538.406-1.15c.206-.619.4-1.169.431-1.225a.545.545 0 0 0 .063-.231c0-.069.025-.144.063-.162.031-.019.063-.106.063-.188s.025-.169.063-.188c.031-.019.063-.119.063-.225 0-.1.031-.181.063-.181.037 0 .063-.088.063-.188 0-.106.031-.188.062-.188.037 0 .063-.088.063-.188 0-.106.031-.188.063-.188.037 0 .063-.088.063-.188 0-.106.031-.188.063-.188.037 0 .063-.088.063-.188 0-.106.031-.188.063-.188.037 0 .063-.088.063-.188 0-.106.031-.188.063-.188.037 0 .063-.075.063-.175s.05-.2.125-.25c.125-.075.125-.063.125 3.894v3.969h1.688V7.183h-.494c-.481 0-.494.006-.556.169-.088.231-.262.763-.544 1.675-.125.412-.256.8-.287.856-.031.063-.056.156-.056.206s-.025.144-.056.206c-.1.194-.319.931-.319 1.069 0 .069-.025.131-.063.131-.031 0-.063.081-.063.188 0 .1-.025.188-.063.188-.031 0-.063.081-.063.188 0 .1-.025.188-.063.188-.031 0-.063.1-.063.219s-.025.219-.063.219c-.031 0-.063.081-.063.188 0 .1-.025.188-.063.188-.031 0-.063.081-.063.188 0 .1-.025.188-.063.188-.031 0-.063.081-.063.181 0 .106-.025.206-.063.225-.031.019-.063.106-.063.188s-.031.169-.063.188c-.031.019-.063.119-.063.219s-.031.2-.063.219c-.031.019-.063.094-.063.162a.626.626 0 0 1-.056.231c-.031.056-.219.613-.412 1.231s-.406 1.281-.475 1.475c-.063.188-.119.394-.119.45s-.025.106-.063.106c-.031 0-.063.081-.063.188 0 .1-.025.188-.063.188-.031 0-.063.063-.063.144 0 .163-.131.481-.2.481-.031 0-.05-.056-.05-.125s-.025-.125-.063-.125c-.031 0-.063-.113-.063-.25s-.025-.25-.063-.25c-.031 0-.063-.087-.063-.188 0-.106-.025-.188-.063-.188-.031 0-.063-.1-.063-.219s-.025-.219-.063-.219c-.031 0-.063-.1-.063-.219s-.025-.219-.063-.219c-.031 0-.063-.081-.063-.181 0-.106-.025-.206-.063-.225-.031-.019-.063-.094-.063-.163 0-.063-.094-.419-.213-.787a55.215 55.215 0 0 1-.544-1.8c-.044-.137-.125-.406-.188-.6a1.987 1.987 0 0 1-.119-.481c0-.069-.025-.15-.063-.169-.031-.019-.063-.119-.063-.219s-.025-.2-.063-.219c-.031-.019-.063-.119-.063-.225 0-.1-.025-.181-.063-.181-.031 0-.063-.1-.063-.219s-.025-.219-.063-.219c-.031 0-.063-.081-.063-.181 0-.106-.025-.206-.063-.225-.031-.019-.063-.137-.063-.256s-.025-.213-.063-.213c-.031 0-.063-.088-.063-.188 0-.106-.025-.188-.063-.188-.031 0-.063-.113-.063-.25s-.025-.25-.063-.25c-.031 0-.063-.1-.063-.219s-.025-.219-.063-.219c-.031 0-.063-.081-.063-.181 0-.106-.025-.206-.063-.225-.031-.019-.063-.119-.063-.219s-.025-.2-.063-.219c-.031-.019-.063-.119-.063-.225 0-.1-.025-.181-.063-.181-.031 0-.063-.063-.063-.137 0-.144-.1-.481-.206-.725-.063-.125-.106-.138-.65-.138H.738l.012 6.45zM11.637 13.669l.019 6.488 1.719.019c1.606.019 2.744-.044 3.219-.175.431-.119.694-.2.813-.244.306-.125.75-.356.769-.4.012-.025.075-.044.144-.044.063 0 .119-.025.119-.056s.056-.081.125-.1c.175-.056 1.175-1.056 1.413-1.406.256-.387.65-1.15.65-1.275 0-.056.031-.1.063-.1.038 0 .063-.087.063-.188 0-.106.031-.188.063-.188.038 0 .063-.113.063-.25s.031-.25.063-.25c.038 0 .063-.15.063-.338s.025-.363.063-.381c.081-.05.081-2.262 0-2.313-.031-.019-.063-.175-.063-.344s-.025-.325-.063-.344c-.031-.019-.063-.131-.063-.25s-.025-.225-.05-.244c-.025-.019-.087-.175-.137-.344-.044-.175-.106-.319-.131-.319-.019 0-.056-.075-.075-.175-.031-.156-.525-.956-.775-1.269-.281-.344-.956-.994-1.031-.994-.05 0-.125-.056-.175-.125s-.137-.125-.2-.125-.113-.031-.113-.063c0-.037-.056-.063-.125-.063s-.125-.031-.125-.063c0-.037-.056-.063-.125-.063s-.125-.031-.125-.063c0-.037-.069-.063-.156-.063s-.156-.031-.156-.063c0-.037-.081-.063-.188-.063-.1 0-.188-.031-.188-.063 0-.037-.113-.063-.244-.063-.137 0-.269-.031-.288-.063-.025-.037-.906-.063-2.444-.063h-2.4l.012 6.481zm3.988-4.606c.688.094.825.137 1.319.381.5.256 1.369 1.019 1.369 1.206 0 .056.031.1.063.1.038 0 .063.044.063.094s.031.094.063.094c.038 0 .063.056.063.125s.031.125.063.125c.038 0 .063.069.063.156s.031.156.063.156c.038 0 .063.081.063.188 0 .1.031.188.063.188.038 0 .063.113.063.244 0 .137.031.269.063.287.038.025.063.512.063 1.25s-.025 1.225-.063 1.25c-.031.019-.063.131-.063.25s-.025.231-.063.25c-.031.019-.063.106-.063.194 0 .081-.025.15-.063.15-.031 0-.063.081-.063.188 0 .1-.025.188-.063.188-.031 0-.063.056-.063.125s-.025.125-.063.125c-.031 0-.063.044-.063.094s-.025.094-.063.094a.063.063 0 0 0-.063.063c0 .15-.738.894-1 1.012-.106.044-.188.1-.188.125 0 .031-.056.05-.125.05s-.125.025-.125.063c0 .031-.056.063-.119.063-.069 0-.144.025-.163.063s-.119.063-.212.063c-.094 0-.194.025-.231.056-.1.1-.688.144-2.269.169-1.2.025-1.537.012-1.581-.05-.056-.094-.069-9.137-.006-9.194.063-.063 2.862-.044 3.331.019zM22.188 13.606c0 3.538.025 6.463.056 6.506.044.069.438.081 2.106.056 1.131-.019 2.225-.063 2.431-.1s.481-.081.613-.106c.125-.019.25-.063.269-.094s.1-.056.181-.056c.081 0 .169-.031.188-.063.019-.038.094-.063.163-.063.063 0 .119-.031.119-.063 0-.038.056-.063.125-.063s.125-.031.125-.063c0-.038.056-.063.125-.063s.125-.031.125-.063c0-.038.05-.063.113-.063s.15-.056.2-.125c.05-.069.125-.125.175-.125.113 0 1.137-1.05 1.137-1.163 0-.05.025-.087.05-.087.075 0 .613-.988.712-1.3.044-.144.1-.262.125-.262.031 0 .05-.087.05-.188 0-.106.031-.188.063-.188.038 0 .063-.106.063-.238s.025-.262.056-.3c.188-.194.188-3.231 0-3.425-.031-.037-.056-.156-.056-.262 0-.113-.025-.225-.063-.244-.031-.019-.063-.094-.063-.162a.626.626 0 0 0-.056-.231c-.031-.056-.131-.287-.231-.512-.2-.438-.669-1.188-.944-1.506-.306-.356-.581-.619-.644-.619-.031 0-.125-.069-.212-.156s-.194-.156-.238-.156c-.05 0-.125-.056-.175-.125s-.137-.125-.2-.125-.113-.031-.113-.063c0-.037-.069-.063-.156-.063s-.156-.031-.156-.063c0-.037-.069-.063-.156-.063s-.156-.031-.156-.063c0-.037-.069-.063-.15-.063-.087 0-.169-.025-.188-.056-.075-.112-.637-.15-2.988-.175l-2.425-.019V13.6zm4.031-4.543c.694.094.906.137.906.188 0 .025.075.063.175.081.369.081 1.512.981 1.512 1.194 0 .037.056.113.125.162s.125.137.125.2.031.113.063.113c.038 0 .063.056.063.125s.031.125.063.125c.038 0 .063.069.063.156s.031.156.063.156c.038 0 .063.1.063.219s.031.219.063.219c.038 0 .063.125.063.281s.031.281.063.281c.038 0 .063.394.063 1.056 0 .644-.025 1.075-.063 1.1-.031.019-.063.15-.063.281s-.025.262-.063.281c-.031.019-.063.137-.063.256s-.025.213-.063.213c-.031 0-.063.056-.063.125s-.025.125-.063.125c-.031 0-.063.056-.063.125s-.025.125-.063.125c-.031 0-.063.056-.063.125s-.025.125-.063.125c-.031 0-.063.044-.063.094s-.025.094-.063.094a.063.063 0 0 0-.063.063c0 .188-.85.9-1.344 1.119a5.1 5.1 0 0 0-.294.137c-.063.031-.181.056-.269.056s-.156.025-.156.063c0 .031-.15.063-.337.063s-.363.025-.381.063c-.025.038-.613.063-1.563.063-1.325 0-1.525-.012-1.556-.1-.05-.131-.05-9.119.006-9.169.063-.063 2.794-.044 3.3.019zM7.188 22.313c0 .212.131.25.294.094.075-.075.081-.119.019-.188a.3.3 0 0 0-.194-.094c-.088 0-.119.044-.119.188zM23.688 22.313c0 .206.131.25.288.1.113-.119.113-.2-.012-.25-.206-.081-.275-.038-.275.15zM5.5 23.281c0 .988.006 1.031.125 1.031.112 0 .125-.044.125-.538 0-.6.063-.706.394-.712.231 0 .356.288.356.844 0 .363.013.406.125.406s.125-.044.125-.55c0-.712-.125-.95-.494-.95-.138 0-.269.025-.287.063-.019.031-.081.063-.131.063-.063 0-.088-.087-.088-.344 0-.3-.013-.344-.125-.344-.119 0-.125.044-.125 1.031zM16.019 22.387c-.081.038-.144.106-.144.156 0 .044-.025.081-.063.081-.031 0-.063.069-.063.156s.031.156.063.156c.037 0 .063.044.063.094s-.025.094-.05.094c-.031 0-.119.056-.194.119-.213.188-.206.688.012.906.137.137.219.163.544.163.206 0 .375-.025.375-.063s.069-.063.156-.063.156.025.156.063c0 .031.087.063.188.063.225 0 .231-.038.056-.194-.131-.113-.144-.306-.025-.575.069-.163-.144-.137-.3.031-.094.106-.131.125-.156.056a.662.662 0 0 0-.144-.2c-.069-.069-.119-.144-.119-.169s-.056-.087-.125-.137c-.156-.113-.175-.469-.025-.525.169-.063.269-.044.387.087.1.113.131.119.194.038.063-.069.056-.119 0-.219-.125-.194-.506-.256-.788-.119zm.094 1.044c.075.063.137.137.137.169s.056.1.125.15c.069.05.125.137.125.2 0 .094-.056.113-.288.113-.163 0-.319-.038-.375-.087-.106-.113-.113-.45-.006-.569.1-.119.125-.113.281.025zM1.444 22.512c-.35.894-.444 1.15-.444 1.219 0 .044-.025.081-.056.081s-.069.063-.088.137c-.012.081-.05.194-.075.25-.037.087-.012.113.106.113s.181-.056.269-.25l.113-.25h.369c.413 0 .55.081.55.337 0 .137.025.163.188.163.144 0 .188-.025.188-.125 0-.069-.025-.125-.063-.125-.031 0-.063-.056-.063-.125s-.025-.125-.063-.125c-.031 0-.063-.087-.063-.188 0-.106-.025-.188-.063-.188-.031 0-.063-.056-.063-.125s-.025-.175-.056-.238c-.031-.056-.087-.194-.131-.294-.144-.344-.169-.375-.337-.394-.125-.019-.175.012-.219.125zm.344.532a.83.83 0 0 0 .1.25c.112.144.006.269-.231.269-.181 0-.219-.025-.219-.137 0-.212.144-.55.231-.55.044 0 .1.075.119.169zM18.438 23.344v.969h.625c.581 0 .625-.006.625-.125 0-.113-.044-.125-.413-.125-.444 0-.587-.075-.587-.313 0-.225.15-.313.525-.313.306 0 .35-.012.35-.125s-.044-.125-.337-.125c-.469 0-.538-.038-.538-.281 0-.25.069-.281.6-.281.356 0 .4-.012.4-.125 0-.119-.044-.125-.625-.125h-.625v.969zM8.188 22.625c0 .094-.056.137-.188.163-.131.031-.188.075-.188.156 0 .069.044.119.1.119.213 0 .275.163.275.712 0 .494.012.538.125.538.119 0 .125-.044.125-.594 0-.581.006-.6.162-.656.188-.075.169-.212-.025-.238-.1-.012-.137-.063-.137-.175 0-.106-.031-.15-.125-.15-.081 0-.125.044-.125.125zM12.419 22.544c-.025.019-.044.094-.044.156 0 .081-.044.113-.156.113s-.156.031-.156.119c0 .075.056.131.156.156.15.038.156.05.156.631 0 .594 0 .594.156.594h.156v-1.25h.194c.15 0 .188-.025.169-.113-.012-.063-.088-.113-.194-.125-.131-.019-.169-.056-.169-.175 0-.106-.037-.15-.113-.15-.063 0-.137.019-.156.044zM2.856 22.856c-.025.019-.044.356-.044.75v.706h.375v-.531c0-.525.006-.538.175-.606a.65.65 0 0 1 .25-.056c.038.006.075-.012.075-.05 0-.031.019-.1.038-.156.044-.119-.163-.137-.369-.031-.1.056-.138.056-.156 0-.025-.075-.275-.094-.344-.025zM4.175 22.956c-.206.175-.3.356-.3.6 0 .238.181.631.294.631.044 0 .081.025.081.063 0 .1.681.075.787-.025.131-.131.106-.288-.037-.288-.069 0-.125.025-.125.063 0 .094-.431.075-.525-.019-.25-.25-.269-.525-.05-.781.138-.156.35-.175.575-.044.213.125.25.119.25-.05 0-.3-.65-.406-.95-.15zM7.188 23.563c0 .706.006.75.125.75s.125-.044.125-.75-.006-.75-.125-.75-.125.044-.125.75zM9.156 23.031c-.194.2-.219.256-.219.563 0 .188.025.344.056.344s.081.056.1.125c.019.069.081.125.131.125s.088.025.088.063c0 .094.7.075.831-.025.144-.113.137-.288-.019-.288-.069 0-.125.025-.125.063 0 .031-.113.063-.25.063-.188 0-.294-.044-.406-.156-.088-.081-.156-.163-.156-.181s.244-.044.537-.05c.631-.019.744-.1.588-.406-.162-.306-.381-.456-.669-.456-.219 0-.3.038-.488.219zm.769.163c.2.181.119.244-.306.244-.406 0-.488-.1-.231-.275.194-.137.375-.125.537.031zM11 22.869c0 .031-.056.081-.125.1s-.125.081-.125.131-.025.087-.063.087-.063.169-.063.375.025.375.063.375.063.056.063.125c0 .081.044.125.125.125.069 0 .125.025.125.063 0 .087.506.075.706-.019.2-.087.231-.294.044-.294-.069 0-.125.025-.125.063 0 .106-.488.069-.625-.044-.175-.15-.169-.531.012-.738.15-.175.363-.2.569-.063.094.063.169.069.231.025.081-.05.063-.081-.081-.212-.131-.119-.244-.156-.456-.156-.15 0-.275.025-.275.056zM13.456 22.887c-.2.094-.213.581-.019.644.069.019.125.069.125.1s.075.056.162.056c.181 0 .338.131.338.275 0 .075-.063.1-.25.1-.137 0-.25-.031-.25-.063 0-.038-.056-.063-.125-.063-.144 0-.169.156-.037.288.113.113.706.119.813.006.188-.188.137-.669-.069-.669-.044 0-.081-.031-.081-.063 0-.038-.075-.063-.162-.063-.181 0-.338-.131-.338-.275 0-.075.063-.1.244-.1.137 0 .256.031.269.069.031.087.238 0 .238-.094 0-.194-.569-.288-.856-.15zM20.125 23.563c0 .706.006.75.125.75.113 0 .125-.044.125-.488 0-.431.019-.506.144-.625a.508.508 0 0 1 .288-.137c.256 0 .319.137.319.712 0 .494.012.538.125.538.119 0 .125-.044.125-.631 0-.575-.012-.65-.137-.75-.137-.125-.519-.163-.581-.056-.019.031-.094.063-.163.063-.063 0-.119-.031-.119-.063 0-.038-.056-.063-.125-.063-.119 0-.125.044-.125.75zM21.975 23.019c-.206.194-.225.238-.225.563 0 .194.025.356.056.356s.081.056.1.125c.019.069.081.125.131.125s.087.025.087.063c0 .031.144.063.313.063.175 0 .313-.031.313-.063 0-.038.044-.063.094-.063.131 0 .119.269-.019.394-.125.119-.7.15-.7.044 0-.038-.05-.031-.125.012-.163.106-.156.137.031.225.212.1.688.094.856-.006.275-.15.294-.225.3-1.156 0-.831-.006-.887-.119-.887-.069 0-.131.038-.15.075-.019.063-.056.063-.163 0-.244-.144-.531-.094-.781.131zm.819.181c.306.288.119.863-.288.863-.456 0-.675-.556-.331-.85.212-.188.431-.188.619-.012zM23.688 23.563c0 .706.006.75.125.75s.125-.044.125-.75-.006-.75-.125-.75-.125.044-.125.75zM24.438 23.563c0 .706.006.75.125.75.113 0 .125-.044.125-.488 0-.431.019-.506.144-.625a.54.54 0 0 1 .306-.137c.219 0 .3.219.3.781 0 .456.006.469.156.469.156 0 .156-.006.156-.538s-.056-.738-.244-.881c-.119-.094-.481-.106-.538-.019-.019.031-.094.063-.163.063-.063 0-.119-.031-.119-.063 0-.038-.056-.063-.125-.063-.119 0-.125.044-.125.75zM26.394 22.887c-.219.106-.35.456-.313.813.038.306.094.394.344.531.163.094.762.106.762.019 0-.038.044-.063.1-.063.069 0 .087-.031.063-.1a.98.98 0 0 1-.038-.125c0-.012-.044-.025-.094-.025s-.094.025-.094.063c0 .031-.131.063-.288.063-.294 0-.462-.1-.462-.275 0-.081.087-.1.494-.1.438 0 .5-.012.538-.119.044-.144-.025-.444-.119-.544-.212-.212-.613-.275-.894-.137zm.644.263a.32.32 0 0 1 .087.188c0 .081-.075.1-.375.1-.325 0-.375-.019-.375-.113 0-.219.488-.344.663-.175zM28.094 22.887c-.25.15-.337.319-.344.681 0 .35.131.619.306.619.038 0 .069.025.069.063 0 .031.156.063.344.063s.344-.031.344-.063c0-.038.056-.063.125-.063.15 0 .156-.038.019-.175-.075-.075-.113-.081-.131-.025-.012.044-.137.075-.306.075-.212 0-.313-.031-.4-.137-.069-.069-.119-.156-.119-.188 0-.025.238-.05.531-.05h.531v-.288c0-.156-.038-.319-.081-.363-.219-.225-.637-.294-.887-.15zm.612.263c.056.044.106.131.106.188 0 .081-.069.1-.369.1-.425 0-.506-.063-.306-.244a.447.447 0 0 1 .569-.044zM29.438 23.563v.75h.156c.15 0 .156-.019.156-.369 0-.581.05-.725.262-.806.106-.038.219-.056.244-.038.031.019.056-.038.056-.125 0-.181-.056-.194-.363-.087-.175.063-.225.063-.244 0-.019-.038-.081-.075-.15-.075-.113 0-.119.05-.119.75zM30.781 22.887c-.169.094-.219.175-.219.375 0 .188.275.425.494.425.075 0 .131.025.131.063 0 .031.044.063.094.063s.094.056.094.125c0 .106-.044.125-.281.125-.156 0-.281-.031-.281-.063 0-.1-.169-.069-.212.038-.063.156.144.269.488.275.344 0 .538-.15.538-.425 0-.181-.281-.45-.469-.45-.163 0-.281-.113-.281-.262 0-.087.05-.113.212-.113.119 0 .238.025.256.063.056.094.156.075.2-.031.081-.225-.469-.375-.762-.206z"/>
    </symbol>
  </defs>
</svg>